<svg width="22" height="22" viewBox="0 0 22 22" fill="none" xmlns="http://www.w3.org/2000/svg">
<g clip-path="url(#clip0_112_115)">
<path d="M21.6381 8.24243C21.6022 8.10259 21.5616 7.96394 21.5198 7.82648C21.0249 6.1866 20.1596 4.70808 19.0157 3.48773L19.0133 3.48534C18.9106 3.37299 18.8018 3.26303 18.6918 3.15545C17.3818 1.86817 15.7503 0.904803 13.9323 0.399213C13.7937 0.360965 13.6527 0.325107 13.5116 0.291641C12.7024 0.100401 11.8586 0 10.992 0C10.1255 0 9.28163 0.101596 8.47245 0.291641C8.33141 0.325107 8.19157 0.360965 8.05172 0.399213C6.23256 0.904803 4.60104 1.86817 3.29105 3.15545C3.18109 3.26303 3.07352 3.37299 2.96953 3.48534C1.82448 4.70569 0.957928 6.18541 0.463095 7.82529C0.421261 7.96394 0.381818 8.10259 0.344765 8.24243C0.116473 9.12213 -0.00305176 10.0437 -0.00305176 10.9939C-0.00305176 11.9441 0.117668 12.8656 0.344765 13.7454C0.380623 13.8852 0.421261 14.0238 0.463095 14.1625C0.957928 15.8024 1.82329 17.2809 2.96714 18.5012L2.96953 18.5036C3.07232 18.616 3.18109 18.726 3.29105 18.8335C4.60104 20.1208 6.23256 21.0842 8.05172 21.5898C8.19037 21.628 8.33141 21.6639 8.47245 21.6973C9.28163 21.8886 10.1255 21.989 10.992 21.989C11.8586 21.989 12.7024 21.8874 13.5116 21.6973C13.6527 21.6639 13.7925 21.628 13.9323 21.5898C15.7515 21.0842 17.3818 20.1208 18.6918 18.8335C18.8018 18.726 18.9094 18.616 19.0133 18.5036L19.0157 18.5012C20.1596 17.2809 21.0249 15.8024 21.5198 14.1637C21.5616 14.025 21.6011 13.8864 21.6381 13.7465C21.8664 12.8668 21.9871 11.9453 21.9871 10.9951C21.9871 10.0449 21.8664 9.12333 21.6381 8.24363V8.24243ZM13.7973 0.968151C15.5041 1.44505 17.0364 2.34866 18.2699 3.55706L15.9045 5.80054C15.1013 5.04036 14.1236 4.46545 13.0383 4.14153L13.7985 0.969346L13.7973 0.968151ZM8.18918 0.968151L8.94935 4.14034C7.86407 4.46425 6.88636 5.03917 6.08315 5.79934L3.71775 3.55586C4.95125 2.34747 6.48236 1.44386 8.19037 0.966956L8.18918 0.968151ZM0.908922 13.578C0.696168 12.7521 0.583815 11.8855 0.583815 10.9927C0.583815 10.0998 0.696168 9.23449 0.908922 8.40737L4.03689 9.33608C3.91019 9.86797 3.84326 10.4226 3.84326 10.9927C3.84326 11.5628 3.91019 12.1174 4.03689 12.6493L0.908922 13.578ZM8.18918 21.0184C6.48236 20.5415 4.95006 19.6379 3.71656 18.4295L6.08195 16.186C6.88516 16.9462 7.86287 17.5211 8.94816 17.8451L8.18798 21.0172L8.18918 21.0184ZM4.42654 10.9927C4.42654 7.37229 7.37282 4.426 10.9932 4.426C14.6136 4.426 17.5599 7.37229 17.5599 10.9927C17.5599 14.6131 14.6136 17.5594 10.9932 17.5594C7.37282 17.5594 4.42654 14.6131 4.42654 10.9927ZM13.7973 21.0184L13.0371 17.8462C14.1224 17.5223 15.1001 16.9474 15.9033 16.1872L18.2687 18.4307C17.0352 19.6391 15.5041 20.5427 13.7961 21.0196L13.7973 21.0184ZM21.0775 13.578L17.9496 12.6493C18.0763 12.1174 18.1432 11.5628 18.1432 10.9927C18.1432 10.4226 18.0763 9.86797 17.9496 9.33608L21.0775 8.40737C21.2903 9.23329 21.4026 10.0998 21.4026 10.9927C21.4026 11.8855 21.2903 12.7509 21.0775 13.578Z" fill="#FFC029"/>
<path d="M8.77592 15.6307C7.4743 15.6307 6.3161 14.7104 6.3161 12.9235C6.3161 11.2561 7.57231 10.2246 8.75441 10.2246C9.69626 10.2246 10.3776 10.5617 10.8628 11.0099L10.362 12.0498C9.88392 11.6159 9.46438 11.3541 8.78429 11.3541C8.06594 11.3541 7.45278 11.9601 7.45278 12.939C7.45278 13.9179 8.07312 14.5395 8.77592 14.5395C9.47873 14.5395 9.9126 14.1881 10.3835 13.7542L10.9142 14.7259C10.5401 15.1144 9.88989 15.6307 8.77592 15.6307Z" fill="white"/>
<path d="M13.4422 15.6301C12.694 15.6301 12.2159 15.421 11.4461 14.8819L11.8047 13.8647C12.5374 14.2986 13.0012 14.5221 13.3681 14.5221C13.8844 14.5221 14.4976 14.3357 14.4976 13.9161C14.4976 13.4595 13.7195 13.4082 13.3908 13.3699C12.5386 13.2647 11.4246 13.0711 11.4246 11.8448C11.4246 10.4619 12.7262 10.1846 13.4804 10.1846C14.1761 10.1846 14.8036 10.4093 15.4849 10.8945L15.1406 11.8448C14.5574 11.4635 13.9968 11.2842 13.4804 11.2842C12.6808 11.2842 12.4932 11.6057 12.4932 11.8005C12.4932 12.1747 13.3526 12.2571 13.5844 12.2571C14.3697 12.3396 15.5805 12.489 15.5805 13.9173C15.5805 15.3457 14.2574 15.6301 13.4422 15.6301Z" fill="white"/>
<path d="M7.46196 9.25076H7.00777V7.64913H6.35516V7.23438H8.11218V7.64913H7.46196V9.25076Z" fill="white"/>
<path d="M9.23144 9.30549C8.73421 9.30549 8.22504 8.94931 8.22504 8.24411C8.22504 7.53892 8.73421 7.17676 9.23144 7.17676C9.72866 7.17676 10.2378 7.55326 10.2378 8.25248C10.2378 8.9517 9.72866 9.30549 9.23144 9.30549ZM9.23144 7.61422C8.84896 7.61422 8.65054 7.8963 8.65054 8.25248C8.65054 8.58835 8.84896 8.86803 9.23144 8.86803C9.61391 8.86803 9.81233 8.59791 9.81233 8.25248C9.81233 7.90705 9.61152 7.61422 9.23144 7.61422Z" fill="white"/>
<path d="M11.336 8.67823H10.9559V9.25076H10.5041L10.5065 7.23438H11.3432C11.7424 7.23438 12.0424 7.49613 12.0424 7.96228C12.0424 8.42843 11.7005 8.67823 11.3348 8.67823H11.336ZM11.3133 7.68379H10.9571V8.2587H11.2906C11.483 8.2587 11.6121 8.12603 11.6121 7.96826C11.6121 7.79256 11.4997 7.68379 11.3133 7.68379Z" fill="white"/>
<path d="M12.8146 7.96951L12.5612 8.30896L12.3198 8.01612L12.8779 7.27148H13.2401V9.25321H12.8146V7.9707V7.96951Z" fill="white"/>
<path d="M14.5896 9.27781C14.1127 9.27781 13.6143 8.92999 13.6143 8.27978C13.6143 7.57578 14.1115 7.23633 14.5896 7.23633C15.0677 7.23633 15.5589 7.57578 15.5589 8.27978C15.5589 8.92999 15.0617 9.27781 14.5896 9.27781ZM14.5896 7.65945C14.2645 7.65945 14.0577 7.9236 14.0577 8.28097C14.0577 8.63835 14.2645 8.85589 14.5896 8.85589C14.9147 8.85589 15.1215 8.60011 15.1215 8.28097C15.1215 7.92718 14.9111 7.65945 14.5896 7.65945Z" fill="white"/>
</g>
<defs>
<clipPath id="clip0_112_115">
<rect width="21.9878" height="21.9878" fill="white"/>
</clipPath>
</defs>
</svg>
