<svg width="15" height="14" viewBox="0 0 15 14" fill="none" xmlns="http://www.w3.org/2000/svg">
<g clip-path="url(#clip0_39_219)">
<path d="M7.72257 0C3.87455 0 0.755127 3.134 0.755127 7C0.755127 10.866 3.87455 14 7.72257 14C11.5706 14 14.69 10.866 14.69 7C14.69 3.134 11.5706 0 7.72257 0ZM7.72257 13.125C4.35555 13.125 1.62606 10.3827 1.62606 7C1.62606 3.61725 4.35555 0.875 7.72257 0.875C11.0896 0.875 13.8191 3.61725 13.8191 7C13.8191 10.3827 11.0896 13.125 7.72257 13.125Z" fill="#0D0428"/>
<path d="M6.721 3.19336L6.10699 3.81023L9.28589 6.99961L6.11135 10.1933L6.72535 10.8102L10.2047 7.31023C10.3736 7.13958 10.3736 6.86401 10.2047 6.69336L6.721 3.19336Z" fill="#0D0428"/>
</g>
<defs>
<clipPath id="clip0_39_219">
<rect width="14" height="14" fill="white" transform="translate(0.690002)"/>
</clipPath>
</defs>
</svg>
